<svg width="24" height="24" viewBox="0 0 24 24" fill="none" xmlns="http://www.w3.org/2000/svg">
<path d="M21 23.25H3.75C2.92162 23.25 2.25 22.5784 2.25 21.75C2.25 20.9216 2.92162 20.25 3.75 20.25H21V23.25Z" fill="#FFEEA8"/>
<path d="M2.25 1.5V20.0764C2.64825 19.719 3.17287 19.5 3.75 19.5H4.5V0.75H3C2.586 0.75 2.25 1.086 2.25 1.5Z" fill="#4A89DC"/>
<path d="M21 0.75H5.25V19.5H21H21.75V18.75V1.5C21.75 1.086 21.414 0.75 21 0.75Z" fill="#4A89DC"/>
<path d="M22.5 19.5V1.5C22.5 0.670875 21.8291 0 21 0H3C2.17088 0 1.5 0.670875 1.5 1.5V21.75C1.5 22.9924 2.50762 24 3.75 24H22.125C22.3324 24 22.5 23.8324 22.5 23.625C22.5 23.4176 22.3324 23.25 22.125 23.25H21.75V20.25C22.164 20.25 22.5 19.914 22.5 19.5ZM2.25 1.5C2.25 1.086 2.586 0.75 3 0.75H4.5V19.5H3.75C3.17287 19.5 2.64825 19.719 2.25 20.0764V1.5ZM21 23.25H3.75C2.92162 23.25 2.25 22.5784 2.25 21.75C2.25 20.9216 2.92162 20.25 3.75 20.25H21V23.25ZM21 19.5H5.25V0.75H21C21.414 0.75 21.75 1.086 21.75 1.5V18.75V19.5H21Z" fill="#394240"/>
<path d="M16.125 9.75H8.625C8.41763 9.75 8.25 9.91763 8.25 10.125C8.25 10.3324 8.41763 10.5 8.625 10.5H16.125C16.3324 10.5 16.5 10.3324 16.5 10.125C16.5 9.91763 16.3324 9.75 16.125 9.75Z" fill="#394240"/>
<path d="M18.375 7.5H8.625C8.41763 7.5 8.25 7.66763 8.25 7.875C8.25 8.08237 8.41763 8.25 8.625 8.25H18.375C18.5824 8.25 18.75 8.08237 18.75 7.875C18.75 7.66763 18.5824 7.5 18.375 7.5Z" fill="#394240"/>
<path d="M8.625 6H13.125C13.3324 6 13.5 5.83237 13.5 5.625C13.5 5.41763 13.3324 5.25 13.125 5.25H8.625C8.41763 5.25 8.25 5.41763 8.25 5.625C8.25 5.83237 8.41763 6 8.625 6Z" fill="#394240"/>
<path opacity="0.2" d="M2.25 1.5V20.0764C2.64825 19.719 3.17287 19.5 3.75 19.5H4.5V0.75H3C2.586 0.75 2.25 1.086 2.25 1.5Z" fill="#231F20"/>
</svg>
