<svg width="24" height="24" viewBox="0 0 24 24" fill="none" xmlns="http://www.w3.org/2000/svg">
<g clip-path="url(#clip0_21_205)">
<path d="M12.0001 0C5.37347 0 0 5.50147 0 12.2881C0 17.7173 3.43838 22.3235 8.20641 23.9483C8.80613 24.062 9.02634 23.6817 9.02634 23.3571C9.02634 23.0641 9.01509 22.0961 9.01003 21.0694C5.67159 21.8126 4.96716 19.6195 4.96716 19.6195C4.42125 18.1992 3.63469 17.8214 3.63469 17.8214C2.54597 17.0588 3.71681 17.0746 3.71681 17.0746C4.92178 17.1612 5.55628 18.3408 5.55628 18.3408C6.62663 20.2193 8.36362 19.6763 9.04838 19.3622C9.15609 18.5681 9.46706 18.0259 9.81028 17.7191C7.14487 17.4084 4.34297 16.3548 4.34297 11.6463C4.34297 10.3047 4.81172 9.20851 5.57934 8.34797C5.45475 8.03846 5.04403 6.78874 5.69559 5.09606C5.69559 5.09606 6.70331 4.76582 8.99653 6.35568C9.95372 6.08342 10.9803 5.94691 12.0001 5.94221C13.0199 5.94691 14.0473 6.08333 15.0063 6.35568C17.2967 4.76592 18.303 5.09616 18.303 5.09616C18.9562 6.78864 18.5452 8.03856 18.4207 8.34797C19.1901 9.20851 19.6556 10.3047 19.6556 11.6463C19.6556 16.366 16.8484 17.4052 14.1762 17.7094C14.6066 18.0907 14.9902 18.8386 14.9902 19.985C14.9902 21.6291 14.9763 22.9524 14.9763 23.3571C14.9763 23.6842 15.1923 24.0673 15.8005 23.9465C20.5659 22.32 24 17.7156 24 12.2882C24 5.50147 18.6273 0 12.0001 0ZM4.49447 17.5046C4.46803 17.5657 4.37419 17.584 4.28878 17.5421C4.20169 17.502 4.15284 17.4188 4.18097 17.3576C4.20684 17.2947 4.30087 17.2771 4.38769 17.3193C4.47487 17.3594 4.52456 17.4434 4.49447 17.5046ZM5.08472 18.044C5.02753 18.0983 4.91559 18.0731 4.83966 17.9872C4.76119 17.9016 4.74647 17.787 4.8045 17.7319C4.86356 17.6775 4.97203 17.703 5.05069 17.7886C5.12925 17.8753 5.14444 17.9891 5.08472 18.044ZM5.48972 18.734C5.41612 18.7863 5.29594 18.7373 5.22159 18.628C5.14809 18.5188 5.14809 18.3877 5.22319 18.3352C5.29772 18.2827 5.41613 18.33 5.49141 18.4384C5.56472 18.5495 5.56472 18.6805 5.48962 18.7341L5.48972 18.734ZM6.17447 19.5332C6.10875 19.6075 5.96859 19.5876 5.86603 19.4862C5.76113 19.3871 5.73197 19.2466 5.79797 19.1723C5.86453 19.0978 6.00544 19.1187 6.10875 19.2193C6.21281 19.3182 6.24469 19.4598 6.17447 19.5332ZM7.05966 19.803C7.03059 19.8993 6.89559 19.943 6.75975 19.9021C6.624 19.86 6.53522 19.7473 6.56259 19.65C6.59081 19.5531 6.72638 19.5076 6.86325 19.5514C6.99881 19.5932 7.08788 19.7051 7.05966 19.803ZM8.06691 19.9175C8.07028 20.0188 7.95506 20.1028 7.81238 20.1047C7.66894 20.108 7.55278 20.026 7.55119 19.9261C7.55119 19.8239 7.66388 19.7407 7.80741 19.7382C7.95009 19.7353 8.06691 19.8167 8.06691 19.9175ZM9.05644 19.8786C9.0735 19.9775 8.97441 20.0791 8.83266 20.1061C8.69344 20.1322 8.56444 20.0711 8.54672 19.9731C8.52947 19.8717 8.63044 19.7701 8.76947 19.7439C8.91141 19.7187 9.03834 19.7781 9.05644 19.8786Z" fill="white"/>
</g>
<defs>
<clipPath id="clip0_21_205">
<rect width="24" height="24" fill="white"/>
</clipPath>
</defs>
</svg>
